<?xml version="1.0" encoding="UTF-8"?>
<!DOCTYPE svg PUBLIC "-//W3C//DTD SVG 1.1//EN" "http://www.w3.org/Graphics/SVG/1.1/DTD/svg11.dtd">
<!-- Creator: CorelDRAW -->
<svg xmlns="http://www.w3.org/2000/svg" xml:space="preserve" width="210mm" height="297mm" style="shape-rendering:geometricPrecision; text-rendering:geometricPrecision; image-rendering:optimizeQuality; fill-rule:evenodd; clip-rule:evenodd"
viewBox="0 0 210 297"
 xmlns:xlink="http://www.w3.org/1999/xlink"
 xmlns:dc="http://purl.org/dc/elements/1.1/"
 xmlns:cc="http://creativecommons.org/ns#"
 xmlns:rdf="http://www.w3.org/1999/02/22-rdf-syntax-ns#"
 xmlns:svg="http://www.w3.org/2000/svg"
 xmlns:sodipodi="http://sodipodi.sourceforge.net/DTD/sodipodi-0.dtd"
 xmlns:inkscape="http://www.inkscape.org/namespaces/inkscape"
 inkscape:version="1.0 (4035a4fb49, 2020-05-01)"
 sodipodi:docname="email.svg"
 version="1.1">
 <defs>
  <style type="text/css">
   <![CDATA[
    .fil0 {fill:white}
   ]]>
  </style>
 </defs>
 <g id="Warstwa_x0020_1">
  <metadata id="CorelCorpID_0Corel-Layer"/>
  <sodipodi:namedview inkscape:current-layer="Capa_1" inkscape:window-maximized="1" inkscape:window-y="-8" inkscape:window-x="-8" inkscape:cy="148.26336" inkscape:cx="54.335317" inkscape:zoom="1.6357475" showgrid="false" id="namedview43" inkscape:window-height="1017" inkscape:window-width="1920" inkscape:pageshadow="2" inkscape:pageopacity="0" guidetolerance="10" gridtolerance="10" objecttolerance="10" borderopacity="1" bordercolor="#666666" pagecolor="#ffffff"/>
  <g id="g10">
   <path id="path2" class="fil0" d="M209.845 88.7398c0,-0.24 0.1651,-0.4735 0.1542,-0.7107l-64.0848 61.7491 64.0082 59.7766c0.0374,-0.427 -0.0776,-0.8576 -0.0776,-1.2937l0 -119.521z"/>
   <path id="path4" class="fil0" d="M136.132 159.281l-26.1613 25.1704c-1.3238,1.2737 -3.0336,1.9123 -4.7443,1.9123 -1.6751,0 -3.3502,-0.6113 -4.6649,-1.8366l-26.0901 -24.3119 -64.4261 62.0995c1.5665,0.5629 3.248,1 5.0089,1l180.345 0c2.6148,0 5.0673,-0.7965 7.1995,-1.9844l-66.467 -62.0493z"/>
   <path id="path6" class="fil0" d="M105.152 170.098l97.8023 -94.2121c-2.2143,-1.3165 -4.7918,-2.1997 -7.5544,-2.1997l-180.345 -0.0001c-3.5975,0 -6.8939,1.3968 -9.4613,3.5272l99.5587 92.8847z"/>
   <path id="path8" class="fil0" d="M-0 91.0344l0 117.225c0,1.3457 0.3093,2.6431 0.645,3.883l63.6268 -61.2711 -64.2718 -59.8367z"/>
  </g>
  <g id="g12">
  </g>
  <g id="g14">
  </g>
  <g id="g16">
  </g>
  <g id="g18">
  </g>
  <g id="g20">
  </g>
  <g id="g22">
  </g>
  <g id="g24">
  </g>
  <g id="g26">
  </g>
  <g id="g28">
  </g>
  <g id="g30">
  </g>
  <g id="g32">
  </g>
  <g id="g34">
  </g>
  <g id="g36">
  </g>
  <g id="g38">
  </g>
  <g id="g40">
  </g>
 </g>
</svg>
