<?xml version="1.0" encoding="UTF-8"?>
<!DOCTYPE svg PUBLIC "-//W3C//DTD SVG 1.1//EN" "http://www.w3.org/Graphics/SVG/1.1/DTD/svg11.dtd">
<!-- Creator: CorelDRAW -->
<svg xmlns="http://www.w3.org/2000/svg" xml:space="preserve" width="210mm" height="297mm" style="shape-rendering:geometricPrecision; text-rendering:geometricPrecision; image-rendering:optimizeQuality; fill-rule:evenodd; clip-rule:evenodd"
viewBox="0 0 210 297"
 xmlns:xlink="http://www.w3.org/1999/xlink"
 xmlns:dc="http://purl.org/dc/elements/1.1/"
 xmlns:cc="http://creativecommons.org/ns#"
 xmlns:rdf="http://www.w3.org/1999/02/22-rdf-syntax-ns#"
 xmlns:svg="http://www.w3.org/2000/svg"
 xmlns:sodipodi="http://sodipodi.sourceforge.net/DTD/sodipodi-0.dtd"
 xmlns:inkscape="http://www.inkscape.org/namespaces/inkscape"
 inkscape:version="1.0 (4035a4fb49, 2020-05-01)"
 sodipodi:docname="phone.svg"
 version="1.1">
 <defs>
  <style type="text/css">
   <![CDATA[
    .fil0 {fill:white}
   ]]>
  </style>
 </defs>
 <g id="Warstwa_x0020_1">
  <metadata id="CorelCorpID_0Corel-Layer"/>
  <sodipodi:namedview inkscape:current-layer="Capa_1" inkscape:window-maximized="1" inkscape:window-y="-8" inkscape:window-x="-8" inkscape:cy="202.6665" inkscape:cx="202.6665" inkscape:zoom="1.8577318" showgrid="false" id="namedview39" inkscape:window-height="1017" inkscape:window-width="1920" inkscape:pageshadow="2" inkscape:pageopacity="0" guidetolerance="10" gridtolerance="10" objecttolerance="10" borderopacity="1" bordercolor="#666666" pagecolor="#ffffff"/>
  <g id="g6">
   <g id="g4">
    <path id="path2" class="fil0" d="M193.421 181.769c-12.9539,0 -25.642,-2.0226 -37.6674,-5.9907 -5.869,-2.0226 -12.5337,-0.4642 -16.3909,3.4707l-23.8405 18.0048c-27.3553,-14.6004 -44.8627,-32.0969 -59.2641,-59.2532l17.5183 -23.2769c4.41,-4.41 5.9907,-10.8649 4.1007,-16.9105 -4.0013,-12.1027 -6.0348,-24.8021 -6.0348,-37.7337 0,-9.1407 -7.4383,-16.579 -16.579,-16.579l-38.6843 0c-9.1407,0 -16.579,7.4383 -16.579,16.579 0,106.647 86.7743,193.421 193.421,193.421 9.1407,0 16.579,-7.4383 16.579,-16.579l0 -38.5735c0,-9.1407 -7.4383,-16.579 -16.579,-16.579z"/>
   </g>
  </g>
  <g id="g8">
  </g>
  <g id="g10">
  </g>
  <g id="g12">
  </g>
  <g id="g14">
  </g>
  <g id="g16">
  </g>
  <g id="g18">
  </g>
  <g id="g20">
  </g>
  <g id="g22">
  </g>
  <g id="g24">
  </g>
  <g id="g26">
  </g>
  <g id="g28">
  </g>
  <g id="g30">
  </g>
  <g id="g32">
  </g>
  <g id="g34">
  </g>
  <g id="g36">
  </g>
 </g>
</svg>
